<svg id="Слой_1" data-name="Слой 1" xmlns="http://www.w3.org/2000/svg" viewBox="0 0 87.36 98.03"><defs><style>.cls-1{font-size:13px;font-family:MyriadPro-Regular, Myriad Pro;letter-spacing:0.2em;}.cls-2{letter-spacing:0.21em;}.cls-3{letter-spacing:0.14em;}</style></defs><path d="M53.71,62.16h2.62a14.52,14.52,0,0,0,.24-2.63V32.25a10.11,10.11,0,0,0-2.19-6.84,9.89,9.89,0,0,1,5,8.82V57.61a10.14,10.14,0,0,1-1,4.55h4.87A13,13,0,0,0,65,55.36V36.42a12.83,12.83,0,0,0-4.92-10.08,17.67,17.67,0,0,0-11.9-4.21H28.61v2.53H32.1v37.5h2.8V24.66h2.8v37.5h5.61V24.66h4.85a5.6,5.6,0,0,1,5.61,5.61V61.51C53.77,61.73,53.73,61.94,53.71,62.16Zm28.24,0h2.8V24.66h2.8v37.5h5.61V24.66h3.48V22.13H78.46v2.53H82ZM43.31,80.64H37.7v37H34.9v-37H32.1v37H28.61v2.53H46.8v-2.53H43.31Zm58.26,10.13v26.86H93.16v-37H87.55v37h-2.8v-37H82v37H78.46v2.53h34.25V90.77Zm5.6,26.86h-2.8V93.3h2.8ZM65,113.87V81.4c0-.26,0-.51,0-.76H59.37V112.3c0,3,.94,5,2.81,6q-5.61-.94-5.61-7.24V80.64h-2.8v29.27q0,10.25,9.84,10.25h4.85v-2.53h-.27Q65,117.63,65,113.87Z" transform="translate(-26.98 -22.13)"/><text class="cls-1" transform="translate(3.58 53.19)">R<tspan class="cls-2" x="9.56" y="0">E</tspan><tspan class="cls-3" x="18.63" y="0">V</tspan><tspan x="27.7" y="0">A LASH</tspan></text></svg>