<svg width="50" height="50" viewBox="0 0 50 50" fill="none" xmlns="http://www.w3.org/2000/svg">
<g clip-path="url(#clip0_51_264)">
<path d="M25 50C20.0555 50 15.222 48.5338 11.1108 45.7868C6.99953 43.0397 3.79521 39.1353 1.90302 34.5671C0.0108322 29.9989 -0.484251 24.9723 0.480379 20.1228C1.44501 15.2732 3.82603 10.8187 7.32234 7.32234C10.8187 3.82603 15.2732 1.44501 20.1228 0.480379C24.9723 -0.484251 29.999 0.0108322 34.5671 1.90302C39.1353 3.79521 43.0397 6.99953 45.7868 11.1108C48.5338 15.222 50 20.0555 50 25C50 31.6304 47.3661 37.9893 42.6777 42.6777C37.9893 47.3661 31.6304 50 25 50ZM25 3.89584C20.826 3.89584 16.7457 5.13358 13.2752 7.45254C9.8046 9.77149 7.09963 13.0675 5.50231 16.9238C3.90498 20.7801 3.48705 25.0234 4.30136 29.1172C5.11566 33.211 7.12564 36.9714 10.0771 39.9229C13.0286 42.8744 16.789 44.8844 20.8828 45.6987C24.9766 46.513 29.2199 46.095 33.0762 44.4977C36.9325 42.9004 40.2285 40.1954 42.5475 36.7249C44.8664 33.2543 46.1042 29.174 46.1042 25C46.0987 19.4045 43.8734 14.0398 39.9168 10.0832C35.9602 6.1266 30.5955 3.90136 25 3.89584Z" fill="#010101"/>
<path d="M31.9792 23.0625H18.0209C17.7482 23.0343 17.4725 23.0636 17.2119 23.1486C16.9512 23.2337 16.7113 23.3725 16.5077 23.5561C16.3041 23.7397 16.1413 23.9641 16.0298 24.2146C15.9184 24.4651 15.8608 24.7362 15.8608 25.0104C15.8608 25.2846 15.9184 25.5557 16.0298 25.8063C16.1413 26.0568 16.3041 26.2811 16.5077 26.4648C16.7113 26.6484 16.9512 26.7872 17.2119 26.8722C17.4725 26.9572 17.7482 26.9866 18.0209 26.9583H31.9792C32.4611 26.9084 32.9074 26.6817 33.2318 26.3219C33.5563 25.9621 33.7358 25.4949 33.7358 25.0104C33.7358 24.526 33.5563 24.0587 33.2318 23.6989C32.9074 23.3392 32.4611 23.1124 31.9792 23.0625Z" fill="#010101"/>
</g>
<defs>
<clipPath id="clip0_51_264">
<rect width="50" height="50" fill="white"/>
</clipPath>
</defs>
</svg>
