<svg width="50" height="50" viewBox="0 0 50 50" fill="none" xmlns="http://www.w3.org/2000/svg">
<g clip-path="url(#clip0_51_261)">
<path d="M25 50C20.0555 50 15.222 48.5338 11.1108 45.7867C6.99953 43.0397 3.79521 39.1352 1.90302 34.5671C0.0108322 29.9989 -0.484251 24.9723 0.480379 20.1228C1.44501 15.2732 3.82603 10.8187 7.32234 7.32234C10.8187 3.82603 15.2732 1.44501 20.1228 0.480379C24.9723 -0.484251 29.999 0.0108322 34.5671 1.90302C39.1353 3.79521 43.0397 6.99953 45.7868 11.1108C48.5338 15.222 50 20.0555 50 25C50 31.6304 47.3661 37.9893 42.6777 42.6777C37.9893 47.3661 31.6304 50 25 50ZM25 3.89584C20.826 3.89584 16.7457 5.13358 13.2752 7.45254C9.8046 9.77149 7.09963 13.0675 5.5023 16.9238C3.90498 20.7801 3.48705 25.0234 4.30136 29.1172C5.11567 33.211 7.12564 36.9714 10.0771 39.9229C13.0286 42.8744 16.789 44.8844 20.8828 45.6987C24.9766 46.513 29.22 46.095 33.0762 44.4977C36.9325 42.9004 40.2285 40.1954 42.5475 36.7249C44.8664 33.2543 46.1042 29.174 46.1042 25C46.0987 19.4045 43.8734 14.0398 39.9168 10.0832C35.9602 6.1266 30.5955 3.90136 25 3.89584V3.89584Z" fill="#010101"/>
<path d="M32.1458 23.0417H27.0833V17.9375C27.0833 17.4236 26.8792 16.9308 26.5159 16.5675C26.1525 16.2041 25.6597 16 25.1458 16C24.632 16 24.1392 16.2041 23.7758 16.5675C23.4125 16.9308 23.2083 17.4236 23.2083 17.9375V23.0625H18C17.4861 23.0625 16.9933 23.2666 16.63 23.63C16.2666 23.9933 16.0625 24.4861 16.0625 25C16.0625 25.5139 16.2666 26.0067 16.63 26.37C16.9933 26.7334 17.4861 26.9375 18 26.9375H23.125V32.0833C23.125 32.5972 23.3291 33.09 23.6925 33.4534C24.0558 33.8167 24.5486 34.0208 25.0625 34.0208C25.3142 34.0236 25.564 33.9767 25.7976 33.8829C26.0312 33.7892 26.244 33.6503 26.4239 33.4742C26.6038 33.2982 26.7473 33.0884 26.8462 32.8569C26.945 32.6254 26.9973 32.3767 27 32.125V26.9583H32.1667C32.6715 26.9056 33.1361 26.6588 33.4625 26.2702C33.789 25.8816 33.9518 25.3813 33.9167 24.875C33.8742 24.4273 33.6756 24.0087 33.3557 23.6926C33.0358 23.3765 32.6149 23.1829 32.1667 23.1458L32.1458 23.0417Z" fill="#010101"/>
</g>
<defs>
<clipPath id="clip0_51_261">
<rect width="50" height="50" fill="white"/>
</clipPath>
</defs>
</svg>
