<svg xmlns="http://www.w3.org/2000/svg" viewBox="0 0 23.99219 24"><path d="M21.26822,3.67553H16.80448l.00519-1.62275A2.05579,2.05579,0,0,0,14.75668-.007H9.25552a2.056,2.056,0,0,0-2.053,2.04713L7.19735,3.67553H2.73276a2.72141,2.72141,0,0,0-.24692,5.43225L5.06458,22.00834A2.47586,2.47586,0,0,0,7.48578,23.993h9.02893a2.47277,2.47277,0,0,0,2.42022-1.98657L21.50067,9.123a2.72872,2.72872,0,0,0-.23245-5.44745ZM9.07288,2.04545a.18257.18257,0,0,1,.18264-.18215h5.50116a.18682.18682,0,0,1,.18362.18362l-.00519,1.62861H9.0677ZM17.10072,21.6411a.59983.59983,0,0,1-.586.48249H7.48578a.60089.60089,0,0,1-.587-.48249L4.39849,9.13274H19.59126Zm4.1675-14.3787H2.73276a.85826.85826,0,1,1,0-1.71652H21.26822a.85826.85826,0,1,1,0,1.71652Z" transform="translate(-0.00391 0.00705)"/><rect x="11.1288" y="11.73239" width="1.87035" height="7.60689" rx="0.92669"/><path d="M15.41765,19.33223a.92674.92674,0,0,0,.91882-.80589l.75644-5.75351a.92672.92672,0,0,0-1.83763-.2416l-.75644,5.75351A.92673.92673,0,0,0,15.41765,19.33223Z" transform="translate(-0.00391 0.00705)"/><path d="M7.96167,11.72534h-.001a.92673.92673,0,0,0-.91881,1.04749l.75644,5.75351a.92672.92672,0,0,0,.91881.80589h.001a.92673.92673,0,0,0,.91881-1.04749l-.75644-5.75351A.92674.92674,0,0,0,7.96167,11.72534Z" transform="translate(-0.00391 0.00705)"/></svg>